<svg xmlns="http://www.w3.org/2000/svg" width="760" height="1080" viewBox="0 0 760 1080" role="img" aria-labelledby="title desc">
  <title id="title">Skill Gauntlet terminal demo</title>
  <desc id="desc">Terminal-style summary showing accepted and rejected skills, missing skill requests, temporary skill loading, validation failure, and repair request outcome.</desc>
  <rect width="760" height="1080" fill="#000000"/>
  <style>
    text {
      fill: #00c878;
      font-family: ui-monospace, SFMono-Regular, Menlo, Monaco, Consolas, "Liberation Mono", "Courier New", monospace;
      font-size: 22px;
      line-height: 1.25;
      letter-spacing: 0;
    }
  </style>
  <text x="24" y="38">SKILL GAUNTLET</text>

  <text x="24" y="94">TASK</text>
  <text x="24" y="122">Analyze research notes:</text>
  <text x="52" y="150">extract claims</text>
  <text x="52" y="178">cluster arguments</text>
  <text x="52" y="206">identify contradictions</text>
  <text x="52" y="234">write summary</text>

  <text x="24" y="290">REGISTRY</text>
  <text x="24" y="318">Accepted: 3</text>
  <text x="24" y="346">Rejected: 2</text>

  <text x="24" y="402">TRACE</text>
  <text x="24" y="430">BLOCKED_MISSING_SKILL argument-clustering</text>
  <text x="24" y="458">REQUESTING_SKILL argument-clustering</text>
  <text x="24" y="486">VALIDATION_PASSED argument-clustering</text>
  <text x="24" y="514">LOADING_TEMP_SKILL argument-clustering</text>

  <text x="24" y="570">BLOCKED_MISSING_SKILL local-script-analysis</text>
  <text x="24" y="598">REQUESTING_SKILL local-script-analysis</text>
  <text x="24" y="626">VALIDATION_FAILED local-script-analysis</text>
  <text x="24" y="654">REQUESTING_REPAIR local-script-analysis</text>

  <text x="24" y="710">RESULT</text>
  <text x="24" y="738">Loaded:</text>
  <text x="52" y="766">extract-claims</text>
  <text x="52" y="794">source-quality-check</text>
  <text x="52" y="822">write-structured-answer</text>

  <text x="24" y="878">Temporary:</text>
  <text x="52" y="906">argument-clustering</text>

  <text x="24" y="962">Rejected:</text>
  <text x="52" y="990">malicious-router, secrets-stealer</text>

  <text x="24" y="1018">Repair: local-script-analysis</text>
  <text x="24" y="1046">Outcome: repair requested</text>
</svg>
